<svg xmlns="http://www.w3.org/2000/svg" height="404.627" width="830.267"><path d="M608.619 282.976l43.449-26.107 12.37-88.028 34.897 114.135 60.17-36.153L830.272-.001a492.261 492.261 0 0 0-75.81 23.621l-32.971 155.123-22.67-128.567a496.955 496.955 0 0 0-68.548 45.97l-14.788 105.14-26.289-68.483a499.224 499.224 0 0 0-47.303 54.562c-.025.071-.052.138-.077.207l66.803 95.404" fill="#fbc418"/><path d="M22 305.555l4.534 63.47 28.535-63.47h20.268l10.668 63.337 23.334-63.337h22.669l-39.07 97.473H72.003l-11.6-64.004-29.736 64.004H10.799L0 305.555h22M140.795 315.821c0-7.066 5.334-12.666 12.933-12.666 6.268 0 11.068 4.4 11.068 10.666 0 7.202-5.467 12.668-12.935 12.668-6.266 0-11.066-4.266-11.066-10.668zm18.001 21.335l-9.201 65.872h-18.401l9.2-65.872h18.402M234.799 360.358l-6 42.67H209.73l5.333-38.27c1.2-8.4-2.401-12.534-8.535-12.534-7.601 0-12.001 5.2-13.066 12.801l-5.334 38.003h-18.936l9.202-65.872h16.934l-.134 6.933c4.268-5.865 11.868-9.2 20.001-9.2 14.936 0 21.735 10.268 19.603 25.47M294.397 366.625c0-10.134-4.801-15.734-11.734-15.734-9.735 0-16.136 10.667-16.136 22.136 0 10.131 4.936 15.733 11.868 15.733 9.601 0 16.002-10.268 16.002-22.135zm27.735-62.137l-13.868 98.54h-16.935l.134-5.734c-4.134 4.667-10.4 7.334-18.135 7.334-14.801 0-26.135-10.135-26.135-30.268 0-22.27 13.735-39.336 33.203-39.336 7.6 0 13.733 2.799 17.6 7.2l5.2-37.736h18.936M347.463 362.225h25.066c.134-7.068-4-11.734-11.601-11.734-7.2 0-12.401 4.4-13.465 11.734zm-1.868 13.735c-.267 7.465 4.8 13.067 13.6 13.067 7.066 0 12.536-3.734 14.401-9.202l15.6 5.335c-4.667 12.134-16.533 19.468-31.067 19.468-18.001 0-30.802-11.335-30.802-32.136 0-21.201 13.333-37.603 34.534-37.603 21.07 0 31.335 16.268 28.668 35.07-.265 1.866-.532 3.068-1.465 6.001h-43.47M439.595 357.157c.132-4.533-2.935-7.465-7.868-7.465-4.667 0-7.734 2.666-7.734 6.132 0 3.333 2.8 4.401 6.268 5.333l8.132 2.001c9.868 2.534 15.47 9.467 15.47 18.667 0 14.268-12.803 22.803-28.67 22.803-14.666 0-24.668-7.334-24.668-20.001l16.135-2.535c-.267 4.535 3.2 7.601 9.333 7.601 5.2 0 8.667-2.4 8.667-6.133 0-2.533-1.6-4.267-4.933-5.2l-9.2-2.667c-11.2-3.333-15.734-9.602-15.734-18.001 0-13.335 10.667-22.803 27.2-22.803 14.268 0 22.536 7.335 23.735 18.668l-16.133 3.6M531.328 361.025l-5.867 42.003h-18.934l5.333-37.87c1.2-8.667-2.533-12.934-8.667-12.934-7.6 0-11.866 5.333-12.933 13.2l-5.335 37.604h-19.068l13.868-98.54h18.935l-5.201 37.47c4.668-4.667 11.068-7.069 18.002-7.069 14.934 0 22 10.534 19.867 26.136M564.524 362.225h25.068c.133-7.068-4-11.734-11.599-11.734-7.201 0-12.401 4.4-13.469 11.734zm-1.867 13.735c-.266 7.465 4.802 13.067 13.602 13.067 7.068 0 12.533-3.734 14.401-9.202l15.601 5.335c-4.666 12.134-16.536 19.468-31.069 19.468-18.001 0-30.803-11.335-30.803-32.136 0-21.201 13.335-37.603 34.536-37.603 21.068 0 31.336 16.268 28.67 35.07-.268 1.866-.535 3.068-1.468 6.001h-43.47M629.324 315.821c0-7.066 5.333-12.666 12.933-12.666 6.267 0 11.068 4.4 11.068 10.666 0 7.202-5.468 12.668-12.934 12.668-6.268 0-11.067-4.266-11.067-10.668zm18 21.335l-9.201 65.872H619.72l9.202-65.872h18.401M759.061 360.625l-5.866 42.403H734.26l5.466-39.87c1.068-8.133-2.4-11.334-7.734-11.334-6.8 0-10.534 5.201-11.466 11.468l-5.468 39.736h-19.202l5.602-39.87c1.066-8-2.935-11.334-8.134-11.334-6.801 0-10.268 5.468-11.068 11.468l-5.468 39.736h-19.2l9.334-66.004h16.801l.133 6.399c2.8-4.667 8.802-8.534 16.935-8.534 9.201 0 15.868 4.402 17.868 12.135 3.733-7.868 12-12.135 21.067-12.135 14.001 0 21.469 10.002 19.334 25.736M42.122 235.439l-3.812 27.3H26.78l3.467-24.788c.867-5.98-1.732-8.84-5.98-8.84-5.372 0-8.32 3.726-9.1 9.186L11.7 262.74H0l9.014-64.05h11.614l-3.467 24.702c3.034-3.294 7.368-4.94 12.047-4.94 9.707 0 14.3 6.846 12.914 16.988M69.768 253.552c6.413 0 10.573-6.155 10.573-13.608 0-7.02-3.38-11.005-8.666-11.005-6.415 0-10.662 6.153-10.662 13.693 0 6.932 3.467 10.92 8.755 10.92zm2.08-35.015c12.22 0 20.28 8.494 20.28 21.147 0 13.26-8.84 24.181-22.62 24.181-12.222 0-20.281-8.32-20.281-21.06 0-13.348 8.927-24.268 22.62-24.268M129.654 238.47c0-6.5-3.034-10.226-8.062-10.226-6.326 0-10.833 6.153-10.833 13.867 0 6.588 3.12 10.141 8.06 10.141 6.327 0 10.835-5.808 10.835-13.781zm14.213-18.546l-6.068 43.248c-1.82 12.655-10.486 19.848-22.88 19.848-11.354 0-19.153-5.98-20.367-14.647l9.534-3.901c1.126 5.547 5.286 8.408 10.833 8.408 6.154 0 10.401-3.553 11.267-9.968l.866-5.893c-2.513 3.034-6.5 4.94-11.786 4.94-10.401 0-16.467-7.454-16.467-18.722 0-14.126 8.233-24.7 20.54-24.7 5.894 0 10.661 2.514 12.828 6.24l1.213-4.853h10.487M161.544 236.564h17.421c.347-5.113-2.601-8.493-7.973-8.493-5.027 0-8.667 3.293-9.448 8.493zm28.516 4.507c-.175 1.213-.433 2.081-.953 3.901h-28.69c-.345 5.46 3.122 9.273 9.188 9.273 4.94 0 8.667-2.6 9.968-6.413l9.534 3.38c-3.034 7.973-10.748 12.567-20.108 12.567-11.7 0-19.762-7.367-19.762-20.715 0-13.78 8.58-24.613 22.362-24.613 13.433 0 20.106 10.4 18.461 22.62M220.477 232.75c.174-3.12-1.993-5.198-5.458-5.198-3.295 0-5.462 1.905-5.462 4.419 0 2.341 1.82 3.121 4.247 3.726l5.461 1.388c6.414 1.646 9.88 6.067 9.88 11.96 0 9.274-8.148 14.734-18.374 14.734-9.534 0-15.947-4.767-15.86-13.002l9.881-1.558c-.175 3.206 2.167 5.373 6.412 5.373 3.727 0 6.241-1.733 6.241-4.421 0-1.819-1.213-3.032-3.468-3.639l-6.153-1.733c-7.107-2.167-10.053-6.242-10.053-11.615 0-8.667 6.846-14.733 17.42-14.733 9.186 0 14.561 4.768 15.254 12.133l-9.968 2.167M235.903 242.719c0-13.435 8.926-24.268 22.881-24.268 9.965 0 17.333 5.633 18.893 14.56l-10.226 3.293c-.694-4.419-4.16-7.365-8.755-7.365-6.5 0-11.007 5.546-11.007 13.26 0 6.933 3.64 11.18 9.275 11.18 4.593 0 8.32-2.774 9.445-6.847l9.968 3.639c-2.688 8.754-10.746 13.608-20.194 13.608-12.219 0-20.28-8.32-20.28-21.06M324.477 235.439l-3.813 27.3h-11.527l3.467-24.788c.867-5.98-1.733-8.84-5.98-8.84-5.375 0-8.321 3.726-9.101 9.186l-3.466 24.442h-11.701l9.013-64.05h11.615l-3.467 24.702c3.034-3.294 7.367-4.94 12.047-4.94 9.707 0 14.3 6.846 12.913 16.988M352.123 253.552c6.413 0 10.573-6.155 10.573-13.608 0-7.02-3.38-11.005-8.667-11.005-6.413 0-10.66 6.153-10.66 13.693 0 6.932 3.467 10.92 8.754 10.92zm2.08-35.015c12.22 0 20.281 8.494 20.281 21.147 0 13.26-8.841 24.181-22.621 24.181-12.22 0-20.282-8.32-20.282-21.06 0-13.348 8.928-24.268 22.622-24.268M401.435 253.552c6.414 0 10.574-6.155 10.574-13.608 0-7.02-3.38-11.005-8.666-11.005-6.415 0-10.66 6.153-10.66 13.693 0 6.932 3.465 10.92 8.752 10.92zm2.081-35.015c12.22 0 20.281 8.494 20.281 21.147 0 13.26-8.841 24.181-22.621 24.181-12.22 0-20.281-8.32-20.281-21.06 0-13.348 8.926-24.268 22.621-24.268M437.833 198.69h11.355l-9.013 64.049H428.82l9.012-64.05" fill="#1a181a"/></svg>